#!OML:ASF I:\Actors\actors\Patient Classification 2\Patient 1\Session 1\actor1.ASF
:FULLY-SPECIFIED
:DEGREES
506
root -1.07603 18.5607 6.64111 -5.9514 6.30896 -0.344199
lowerback 6.40117 1.24215 8.52756
upperback -2.57319 2.56293 2.3611
thorax -6.05786 0.97784 -2.58875
lowerneck -16.6687 -1.34139 5.79129
upperneck 31.551 -2.53896 -3.74805
head 13.2415 -0.895654 -2.87651
rclavicle -2.90226e-014 -5.24792e-014
rhumerus -63.4281 -20.4078 -73.2179
rradius 39.0034
rwrist -0.526858
rhand -36.8749 -50.1536
rfingers 7.12502
rthumb -9.954 -79.8983
lclavicle -2.90226e-014 -5.24792e-014
lhumerus -52.0865 10.2848 88.7317
lradius 40.3641
lwrist 11.2674
lhand -26.1299 -22.2303
lfingers 7.12502
lthumb 0.420314 7.74906
rfemur 0 0 0
rtibia 0
rfoot 0 0
rtoes 0
lfemur 0.782636 3.16111 -11.2095
ltibia 26.5145
lfoot -16.0493 -2.31092
ltoes -56.452
507
root -1.13087 18.5794 6.62877 -5.98303 6.89938 0.260734
lowerback 6.41666 1.1749 8.69436
upperback -2.56998 2.49219 2.39849
thorax -6.06746 0.93707 -2.63473
lowerneck -16.7275 -0.954496 6.13256
upperneck 31.5636 -2.0047 -3.96617
head 13.2863 -0.646146 -2.94032
rclavicle -1.88845e-014 -3.18055e-015
rhumerus -63.5555 -20.4575 -73.0161
rradius 38.9906
rwrist -1.68881
rhand -36.8585 -50.5273
rfingers 7.12502
rthumb -9.93814 -80.2727
lclavicle -1.88845e-014 -3.18055e-015
lhumerus -52.0951 10.07 88.9095
lradius 40.3946
lwrist 11.589
lhand -25.81 -22.0035
lfingers 7.12502
lthumb 0.72923 7.97501
rfemur 0 0 0
rtibia 0
rfoot 0 0
rtoes 0
lfemur 0.497533 3.67274 -11.538
ltibia 26.7363
lfoot -15.0127 -3.1061
ltoes -56.2635
508
root -1.18366 18.5971 6.61817 -6.0315 7.4259 0.831902
lowerback 6.43525 1.15185 8.82758
upperback -2.55345 2.47452 2.4002
thorax -6.0584 0.924011 -2.70513
lowerneck -16.6802 -0.621239 6.56407
upperneck 31.4204 -1.54637 -4.25786
head 13.2384 -0.433418 -3.05323
rclavicle 1.8487e-014 -3.81667e-014
rhumerus -63.7193 -20.6434 -72.8154
rradius 38.9798
rwrist -2.65113
rhand -36.8328 -50.807
rfingers 7.12502
rthumb -9.91338 -80.5536
lclavicle 1.8487e-014 -3.81667e-014
lhumerus -52.1257 9.78359 89.0684
lradius 40.4992
lwrist 12.068
lhand -25.5671 -21.836
lfingers 7.12502
lthumb 0.963821 8.1416
rfemur 0 0 0
rtibia 0
rfoot 0 0
rtoes 0
lfemur 0.295595 4.00941 -11.8653
ltibia 26.9048
lfoot -14.0669 -3.76966
ltoes -56.2902
509
root -1.23227 18.6119 6.60903 -6.09422 7.85456 1.27983
lowerback 6.46237 1.17224 9.02053
upperback -2.52569 2.5222 2.4354
thorax -6.03466 0.942352 -2.7804
lowerneck -16.6235 -0.332432 6.7516
upperneck 31.1797 -1.17906 -4.24031
head 13.1511 -0.249973 -3.01251
rclavicle 1.61016e-014 7.15625e-014
rhumerus -63.8658 -20.7558 -72.671
rradius 39.0397
rwrist -3.54486
rhand -36.7989 -51.2004
rfingers 7.12502
rthumb -9.88063 -80.9485
lclavicle 1.61016e-014 7.15625e-014
lhumerus -52.1689 9.44399 89.3159
lradius 40.7412
lwrist 12.6426
lhand -25.3899 -21.7215
lfingers 7.12502
lthumb 1.13502 8.25522
rfemur 0 0 0
rtibia 0
rfoot 0 0
rtoes 0
lfemur 0.166938 4.1041 -12.1107
ltibia 27.0271
lfoot -13.2754 -4.22507
ltoes -56.4146
510
root -1.27601 18.6245 6.6009 -6.10464 8.18126 1.62118
lowerback 6.46806 1.20906 9.27123
upperback -2.54013 2.59769 2.47168
thorax -6.03853 0.969857 -2.88901
lowerneck -16.2338 0.154682 7.18477
upperneck 30.8146 -0.515848 -4.38612
head 12.9621 0.0706103 -3.02507
rclavicle -1.33186e-014 1.90833e-014
rhumerus -64.0687 -20.7321 -72.6124
rradius 39.1519
rwrist -4.36767
rhand -36.7459 -51.317
rfingers 7.12502
rthumb -9.82949 -81.0675
lclavicle -1.33186e-014 1.90833e-014
lhumerus -52.2302 9.16977 89.5222
lradius 40.9782
lwrist 13.0497
lhand -25.2673 -21.7202
lfingers 7.12502
lthumb 1.25337 8.25591
rfemur 0 0 0
rtibia 0
rfoot 0 0
rtoes 0
lfemur 0.0313947 4.13369 -12.2615
ltibia 27.1058
lfoot -12.5399 -4.64138
ltoes -56.5268
511
root -1.31655 18.6353 6.59554 -6.06001 8.43145 1.96114
lowerback 6.4095 1.27626 9.44166
upperback -2.57965 2.69703 2.45219
thorax -6.02887 1.01089 -3.01244
lowerneck -16.0603 0.470485 7.57095
upperneck 30.655 -0.0704607 -4.6413
head 12.8919 0.278592 -3.11668
rclavicle -1.68967e-014 -1.74931e-014
rhumerus -64.369 -20.8048 -72.5328
rradius 39.3003
rwrist -4.91592
rhand -36.5745 -51.0903
rfingers 7.12502
rthumb -9.6641 -80.8486
lclavicle -1.68967e-014 -1.74931e-014
lhumerus -52.2556 9.09906 89.508
lradius 41.0382
lwrist 12.9783
lhand -25.0557 -21.8057
lfingers 7.12502
lthumb 1.45777 8.16903
rfemur 0 0 0
rtibia 0
rfoot 0 0
rtoes 0
lfemur -0.110637 4.10496 -12.4357
ltibia 27.1429
lfoot -11.8969 -4.96112
ltoes -56.6635
512
root -1.35388 18.6436 6.59293 -6.00615 8.67608 2.31016
lowerback 6.3288 1.33793 9.49791
upperback -2.60243 2.77349 2.41432
thorax -5.99374 1.0464 -3.08861
lowerneck -16.0641 0.682296 7.78034
upperneck 30.6471 0.244096 -4.83859
head 12.9146 0.417874 -3.18196
rclavicle 1.90833e-014 -7.95139e-015
rhumerus -64.5478 -20.9239 -72.4266
rradius 39.362
rwrist -5.28527
rhand -36.4802 -51.0292
rfingers 7.12502
rthumb -9.57316 -80.7917
lclavicle 1.90833e-014 -7.95139e-015
lhumerus -52.2063 9.19767 89.4169
lradius 41.0308
lwrist 12.7073
lhand -24.8558 -21.9367
lfingers 7.12502
lthumb 1.65088 8.03661
rfemur 0 0 0
rtibia 0
rfoot 0 0
rtoes 0
lfemur -0.238398 4.11741 -12.6201
ltibia 27.1498
lfoot -11.3228 -5.27495
ltoes -56.7485
513
root -1.38757 18.651 6.59294 -5.924 8.90113 2.57927
lowerback 6.22069 1.36497 9.51179
upperback -2.64017 2.79885 2.39163
thorax -5.96726 1.05809 -3.11933
lowerneck -16.0784 0.910528 7.95139
upperneck 30.7081 0.574729 -4.97489
head 12.9714 0.569296 -3.21635
rclavicle -1.78906e-014 9.54166e-015
rhumerus -64.583 -20.941 -72.3668
rradius 39.3028
rwrist -5.54766
rhand -36.5344 -51.3927
rfingers 7.12502
rthumb -9.62545 -81.1528
lclavicle -1.78906e-014 9.54166e-015
lhumerus -52.1782 9.29315 89.3733
lradius 41.0619
lwrist 12.501
lhand -24.8764 -21.9737
lfingers 7.12502
lthumb 1.63095 7.99986
rfemur 0 0 0
rtibia 0
rfoot 0 0
rtoes 0
lfemur -0.369828 4.17928 -12.7222
ltibia 27.1463
lfoot -10.8849 -5.62332
ltoes -56.7954
514
root -1.41634 18.6567 6.59516 -5.82789 9.0484 2.68206
lowerback 6.03079 1.38684 9.55675
upperback -2.68494 2.81254 2.40686
thorax -5.90359 1.06524 -3.12321
lowerneck -16.0749 1.14947 8.12782
upperneck 30.8109 0.915281 -5.09015
head 13.0445 0.729466 -3.24279
rclavicle 4.01545e-014 4.77083e-014
rhumerus -64.5802 -20.9157 -72.3393
rradius 39.1914
rwrist -5.6284
rhand -36.6132 -51.753
rfingers 7.12502
rthumb -9.70148 -81.5095
lclavicle 4.01545e-014 4.77083e-014
lhumerus -52.1429 9.46772 89.2779
lradius 40.9899
lwrist 12.1108
lhand -24.9572 -21.8763
lfingers 7.12502
lthumb 1.55294 8.09783
rfemur 0 0 0
rtibia 0
rfoot 0 0
rtoes 0
lfemur -0.49374 4.1262 -12.7021
ltibia 27.1436
lfoot -10.6414 -5.81797
ltoes -56.8722
515
root -1.43901 18.6598 6.59709 -5.79061 9.14491 2.63165
lowerback 5.86036 1.39137 9.69326
upperback -2.70531 2.81238 2.44445
thorax -5.82468 1.06391 -3.15305
lowerneck -16.0263 1.37544 8.29423
upperneck 30.8516 1.25129 -5.23058
head 13.0827 0.881637 -3.27574
rclavicle -5.56597e-015 0
rhumerus -64.5322 -20.8884 -72.3475
rradius 39.0709
rwrist -5.55941
rhand -36.6372 -51.8129
rfingers 7.12502
rthumb -9.72462 -81.5684
lclavicle -5.56597e-015 0
lhumerus -52.0536 9.74852 89.0986
lradius 40.8008
lwrist 11.5359
lhand -24.896 -21.8373
lfingers 7.12502
lthumb 1.61203 8.13632
rfemur 0 0 0
rtibia 0
rfoot 0 0
rtoes 0
lfemur -0.564625 4.04583 -12.5621
ltibia 27.1439
lfoot -10.507 -5.9061
ltoes -56.9566
516
root -1.45703 18.6612 6.59768 -5.78543 9.21947 2.5567
lowerback 5.80352 1.38727 9.85146
upperback -2.73215 2.81441 2.43405
thorax -5.81451 1.05832 -3.24968
lowerneck -15.9859 1.6389 8.70252
upperneck 30.9244 1.66077 -5.64962
head 13.1485 1.05843 -3.45129
rclavicle -3.97569e-015 2.8625e-014
rhumerus -64.4992 -20.8948 -72.384
rradius 38.9783
rwrist -5.36734
rhand -36.7078 -51.7582
rfingers 7.12502
rthumb -9.79277 -81.5105
lclavicle -3.97569e-015 2.8625e-014
lhumerus -51.9889 9.86324 88.9559
lradius 40.6594
lwrist 11.1111
lhand -24.6915 -21.8568
lfingers 7.12502
lthumb 1.80957 8.11524
rfemur 0 0 0
rtibia 0
rfoot 0 0
rtoes 0
lfemur -0.594061 3.9957 -12.4264
ltibia 27.1385
lfoot -10.4542 -5.96403
ltoes -56.8999
517
root -1.47049 18.6606 6.59919 -5.77721 9.23621 2.50912
lowerback 5.8027 1.39788 9.92113
upperback -2.76157 2.8341 2.39061
thorax -5.83837 1.06235 -3.33599
lowerneck -16.0561 2.03056 9.62705
upperneck 31.1499 2.28007 -6.6233
head 13.3423 1.31845 -3.91404
rclavicle -1.23246e-014 -7.95139e-015
rhumerus -64.5046 -20.9235 -72.4385
rradius 38.9505
rwrist -5.1223
rhand -36.8557 -51.7955
rfingers 7.12502
rthumb -9.93548 -81.5411
lclavicle -1.23246e-014 -7.95139e-015
lhumerus -51.9632 9.71193 88.9743
lradius 40.6392
lwrist 11.0837
lhand -24.5591 -21.7364
lfingers 7.12502
lthumb 1.93739 8.23456
rfemur 0 0 0
rtibia 0
rfoot 0 0
rtoes 0
lfemur -0.593367 3.8994 -12.3718
ltibia 27.1209
lfoot -10.5113 -5.90222
ltoes -56.7541
